<svg width="24" height="24" viewBox="-5 -5 34 34" fill="none" xmlns="http://www.w3.org/2000/svg">
  <path fill-rule="evenodd" clip-rule="evenodd"
    d="M7.5 4C6.67157 4 6 4.67157 6 5.5V18.5C6 19.3284 6.67157 20 7.5 20H16.5C17.3284 20 18 19.3284 18 18.5V7.90754C18 7.77978 17.9837 7.65387 17.9524 7.53251C17.9272 7.53643 17.9013 7.53846 17.875 7.53846H15.5C14.6716 7.53846 14 6.86689 14 6.03846V4.02123C13.9174 4.00718 13.8333 4 13.7485 4H7.5ZM15 4.60188V6.03846C15 6.3146 15.2239 6.53846 15.5 6.53846H17.2132L15 4.60188ZM5 5.5C5 4.11929 6.11929 3 7.5 3H13.7485C14.3541 3 14.9391 3.2198 15.3948 3.61856L18.1463 6.0261C18.6888 6.50082 19 7.18663 19 7.90754V18.5C19 19.8807 17.8807 21 16.5 21H7.5C6.11929 21 5 19.8807 5 18.5V5.5Z"
    fill="#282829" />
  <path fill-rule="evenodd" clip-rule="evenodd"
    d="M20.8536 3.14645C21.0488 3.34171 21.0488 3.65829 20.8536 3.85355L3.85356 20.8536C3.65829 21.0488 3.34171 21.0488 3.14645 20.8536C2.95119 20.6583 2.95119 20.3417 3.14645 20.1464L20.1464 3.14645C20.3417 2.95118 20.6583 2.95118 20.8536 3.14645Z"
    fill="#282829" />
</svg>
