<?xml version="1.0" encoding="utf-8"?>
<svg version="1.1" xmlns="http://www.w3.org/2000/svg" xmlns:xlink="http://www.w3.org/1999/xlink" viewBox="30 -2 120 110" xml:space="preserve">
	<g>
		<path class="st0" d="M124.7,15c-8.9-8.9-20.3-13.9-31.9-15c-1.4-0.1-2.2,1.6-1.2,2.6l18.7,18.7c0.1,0.1,0,0.3-0.2,0.2
			c-5.3-3.9-11.5-6.1-17.8-6.7c-1-0.1-1.5,1.1-0.8,1.8l12.7,12.7c0.1,0.1,0,0.3-0.2,0.2c-3.5-2.4-7.5-3.8-11.6-4.2
			c-0.7-0.1-1.1,0.8-0.6,1.2l21.7,21.7c0.5,0.5,1.3,0.1,1.2-0.6c-0.4-4.1-1.8-8.1-4.2-11.6c-0.1-0.1,0.1-0.3,0.2-0.2L123,48.2
			c0.7,0.7,1.9,0.2,1.8-0.8c-0.6-6.3-2.8-12.4-6.7-17.8c-0.1-0.1,0.1-0.3,0.2-0.2l18.7,18.7c1,1,2.7,0.2,2.6-1.2
			C138.6,35.2,133.6,23.9,124.7,15" />
		<path class="st0" d="M51.4,15C60.3,6.1,71.7,1.1,83.3,0c1.4-0.1,2.2,1.6,1.2,2.6L65.9,21.3c-0.1,0.1,0,0.3,0.2,0.2
			c5.3-3.9,11.5-6.1,17.8-6.7c1-0.1,1.5,1.1,0.8,1.8L71.9,29.4c-0.1,0.1,0,0.3,0.2,0.2c3.5-2.4,7.5-3.8,11.6-4.2
			c0.7-0.1,1.1,0.8,0.6,1.2L62.6,48.3c-0.5,0.5-1.3,0.1-1.2-0.6c0.4-4.1,1.8-8.1,4.2-11.6c0.1-0.1-0.1-0.3-0.2-0.2L53.1,48.2
			c-0.7,0.7-1.9,0.2-1.8-0.8c0.6-6.3,2.8-12.4,6.7-17.8c0.1-0.1-0.1-0.3-0.2-0.2L39,48.1c-1,1-2.7,0.2-2.6-1.2
			C37.5,35.2,42.5,23.9,51.4,15" />
		<path class="st0" d="M51.4,88.8c8.9,8.9,20.3,13.9,31.9,15c1.4,0.1,2.2-1.6,1.2-2.6L65.9,82.5c-0.1-0.1,0-0.3,0.2-0.2
			c5.3,3.9,11.5,6.1,17.8,6.7c1,0.1,1.5-1.1,0.8-1.8L71.9,74.4c-0.1-0.1,0-0.3,0.2-0.2c3.5,2.4,7.5,3.8,11.6,4.2
			c0.7,0.1,1.1-0.8,0.6-1.2L62.6,55.5c-0.5-0.5-1.3-0.1-1.2,0.6c0.4,4.1,1.8,8.1,4.2,11.6c0.1,0.1-0.1,0.3-0.2,0.2L53.1,55.6
			c-0.7-0.7-1.9-0.2-1.8,0.8c0.6,6.3,2.8,12.5,6.7,17.8c0.1,0.1-0.1,0.3-0.2,0.2L39,55.7c-1-1-2.7-0.2-2.6,1.2
			C37.5,68.6,42.5,79.9,51.4,88.8" />
		<path class="st0" d="M124.7,88.8c-8.9,8.9-20.3,13.9-31.9,15c-1.4,0.1-2.2-1.6-1.2-2.6l18.7-18.7c0.1-0.1,0-0.3-0.2-0.2
			c-5.3,3.9-11.5,6.1-17.8,6.7c-1,0.1-1.5-1.1-0.8-1.8l12.7-12.7c0.1-0.1,0-0.3-0.2-0.2c-3.5,2.4-7.5,3.8-11.6,4.2
			c-0.7,0.1-1.1-0.8-0.6-1.2l21.7-21.7c0.5-0.5,1.3-0.1,1.2,0.6c-0.4,4.1-1.8,8.1-4.2,11.6c-0.1,0.1,0.1,0.3,0.2,0.2L123,55.6
			c0.7-0.7,1.9-0.2,1.8,0.8c-0.6,6.3-2.8,12.5-6.7,17.8c-0.1,0.1,0.1,0.3,0.2,0.2l18.7-18.7c1-1,2.7-0.2,2.6,1.2
			C138.6,68.6,133.6,79.9,124.7,88.8" />
	</g>
</svg>
