<svg viewBox="0 0 174 19" version="1.1" xmlns="http://www.w3.org/2000/svg" xmlns:xlink="http://www.w3.org/1999/xlink">
  <g stroke="none" stroke-width="1" fill="none" fill-rule="evenodd">
    <path
      d="M16.6069557,19 L18.5550262,5.42857143 L19.9366365,5.42857143 L19.3425441,9.5 L27.6322058,9.5 L29,0 L1.36779419,0 L0,9.5 L8.28966174,9.5 L8.88375417,5.42857143 L10.2653645,5.42857143 L8.31729395,19 L16.6069557,19 Z M35.9198908,19 L36.843878,12.2142857 L47.4037324,12.2142857 L46.4797451,19 L54.3996359,19 L57,0 L49.0801092,0 L48.1429222,6.78571429 L37.5830678,6.78571429 L38.5202549,0 L30.6003641,0 L28,19 L35.9198908,19 Z M82.3996359,19 L83.1388257,13.5714286 L64.6590806,13.5714286 L64.843878,12.2142857 L83.3236231,12.2142857 L84.0628129,6.78571429 L65.5830678,6.78571429 L65.7810651,5.42857143 L84.2608102,5.42857143 L85,0 L58.6003641,0 L56,19 L82.3996359,19 Z M112.399636,19 L114.062813,6.78571429 L96.9030496,6.78571429 L96.1638598,12.2142857 L105.403732,12.2142857 L105.218935,13.5714286 L94.6590806,13.5714286 L95.7810651,5.42857143 L114.26081,5.42857143 L115,0 L88.6003641,0 L86,19 L112.399636,19 Z M132.857727,19 L133.780455,12.2142857 L139.053182,12.2142857 L146,0 L138.090909,0 L134.228636,6.78571429 L126.912727,6.78571429 L124.909091,0 L117,0 L120.598636,12.2142857 L125.871364,12.2142857 L124.948636,19 L132.857727,19 Z M152.919891,19 L154.781065,5.42857143 L156.101047,5.42857143 L154.239873,19 L162.159763,19 L164.020938,5.42857143 L165.340919,5.42857143 L163.479745,19 L171.399636,19 L174,0 L147.600364,0 L145,19 L152.919891,19 Z"
      id="THEGYM" fill="#292929" fill-rule="nonzero"></path>
  </g>
</svg>
